<svg width="15" height="12" viewBox="0 0 15 12" fill="none" xmlns="http://www.w3.org/2000/svg">
<path d="M14.8591 11.0387L0.843953 0.0822632C0.805512 0.0514856 0.761385 0.0285809 0.714092 0.0148569C0.666799 0.00113293 0.617265 -0.00314159 0.56832 0.00227741C0.519375 0.00769641 0.471977 0.0227028 0.428831 0.0464398C0.385685 0.0701768 0.347638 0.10218 0.31686 0.140621L0.0824921 0.433346C0.0516423 0.471801 0.0286779 0.515961 0.0149131 0.5633C0.0011482 0.610639 -0.00314694 0.660228 0.0022734 0.709229C0.00769375 0.758229 0.0227232 0.80568 0.0465017 0.848867C0.0702802 0.892053 0.102341 0.930126 0.14085 0.960908L14.156 11.9174C14.1945 11.9481 14.2386 11.9711 14.2859 11.9848C14.3332 11.9985 14.3827 12.0028 14.4317 11.9974C14.4806 11.9919 14.528 11.9769 14.5712 11.9532C14.6143 11.9295 14.6524 11.8975 14.6831 11.859L14.9175 11.5663C14.9484 11.5278 14.9713 11.4837 14.9851 11.4363C14.9989 11.389 15.0031 11.3394 14.9977 11.2904C14.9923 11.2414 14.9773 11.194 14.9535 11.1508C14.9297 11.1076 14.8977 11.0695 14.8591 11.0387ZM6.95603 3.43279L10.1151 5.90255C10.063 4.49775 8.91746 3.3749 7.5 3.3749C7.31716 3.37524 7.13485 3.39464 6.95603 3.43279ZM8.04397 8.56708L4.88492 6.09731C4.93719 7.50188 6.08278 8.62474 7.5 8.62474C7.68283 8.62435 7.86512 8.60503 8.04397 8.56708ZM7.5 2.62492C9.81204 2.62492 11.9317 3.91394 13.0763 5.99982C12.7957 6.51317 12.449 6.98751 12.0451 7.41071L12.9296 8.1021C13.422 7.57528 13.8393 6.98289 14.1694 6.34176C14.223 6.23571 14.251 6.11853 14.251 5.9997C14.251 5.88086 14.223 5.76369 14.1694 5.65764C12.8973 3.17779 10.3811 1.49995 7.5 1.49995C6.63987 1.49995 5.81935 1.66401 5.04781 1.9408L6.13551 2.79132C6.5794 2.69054 7.03408 2.62492 7.5 2.62492ZM7.5 9.37471C5.18796 9.37471 3.06857 8.08569 1.92369 5.99982C2.20464 5.48647 2.55173 5.0122 2.95608 4.58916L2.07157 3.89777C1.5792 4.42451 1.16206 5.01682 0.832001 5.65787C0.778387 5.76393 0.750453 5.8811 0.750453 5.99993C0.750453 6.11877 0.778387 6.23594 0.832001 6.34199C2.10298 8.82184 4.61915 10.4997 7.5 10.4997C8.36013 10.4997 9.18065 10.3345 9.95219 10.0588L8.86449 9.20855C8.4206 9.30909 7.96616 9.37471 7.5 9.37471Z" fill="#8DA2C0"/>
</svg>
