<svg width="15" height="10" viewBox="0 0 15 10" fill="none" xmlns="http://www.w3.org/2000/svg">
<path d="M7.5 2.08334C7.22399 2.08765 6.95003 2.1315 6.68646 2.21355C6.80837 2.42795 6.87329 2.67003 6.875 2.91667C6.875 3.10818 6.83728 3.29782 6.76399 3.47475C6.6907 3.65169 6.58328 3.81245 6.44786 3.94787C6.31244 4.08329 6.15168 4.19071 5.97474 4.264C5.79781 4.33729 5.60817 4.37501 5.41666 4.37501C5.17002 4.3733 4.92794 4.30838 4.71354 4.18647C4.54438 4.77313 4.56409 5.39815 4.76989 5.97299C4.97569 6.54783 5.35713 7.04335 5.8602 7.38935C6.36326 7.73535 6.96244 7.91431 7.57286 7.90086C8.18328 7.88741 8.77399 7.68224 9.26133 7.31442C9.74866 6.94659 10.1079 6.43476 10.2882 5.85141C10.4685 5.26807 10.4606 4.64279 10.2658 4.06414C10.071 3.48549 9.69902 2.98282 9.20263 2.62731C8.70623 2.27181 8.11056 2.0815 7.5 2.08334ZM14.9094 4.6198C13.4971 1.86433 10.7013 0 7.5 0C4.29869 0 1.50207 1.86563 0.0906109 4.62006C0.0310384 4.7379 0 4.8681 0 5.00014C0 5.13218 0.0310384 5.26238 0.0906109 5.38022C1.50285 8.13569 4.29869 10 7.5 10C10.7013 10 13.4979 8.13439 14.9094 5.37996C14.969 5.26212 15 5.13192 15 4.99988C15 4.86784 14.969 4.73764 14.9094 4.6198ZM7.5 8.75002C4.93098 8.75002 2.57577 7.31772 1.30389 5.00001C2.57577 2.6823 4.93072 1.25 7.5 1.25C10.0693 1.25 12.4242 2.6823 13.6961 5.00001C12.4245 7.31772 10.0693 8.75002 7.5 8.75002Z" fill="#8DA2C0"/>
</svg>
