<svg width="350" height="288" viewBox="0 0 350 288" fill="none" xmlns="http://www.w3.org/2000/svg">
<g clip-path="url(#clip0)">
<path d="M260.425 224.973H151.905C150.172 224.971 148.511 224.282 147.286 223.056C146.061 221.83 145.372 220.167 145.37 218.434V140.353C145.372 138.62 146.061 136.957 147.286 135.731C148.511 134.505 150.172 133.816 151.905 133.814H260.425C262.157 133.816 263.818 134.505 265.044 135.731C266.269 136.957 266.958 138.62 266.96 140.353V218.434C266.958 220.167 266.269 221.83 265.044 223.056C263.818 224.282 262.157 224.971 260.425 224.973V224.973Z" fill="#E6E6E6"/>
<path d="M153.911 219.76H258.419C259.259 219.76 260.065 219.426 260.659 218.831C261.253 218.237 261.587 217.43 261.587 216.589V142.198C261.587 141.357 261.253 140.55 260.659 139.956C260.065 139.361 259.259 139.027 258.419 139.027H153.911C153.07 139.027 152.264 139.361 151.67 139.956C151.076 140.55 150.742 141.357 150.742 142.198V216.589C150.742 217.43 151.076 218.237 151.67 218.831C152.264 219.426 153.07 219.76 153.911 219.76Z" fill="white"/>
<path d="M115.055 120.15H6.53496C4.80238 120.148 3.14133 119.458 1.91621 118.232C0.691089 117.006 0.00195712 115.344 0 113.61V35.5303C0.00195607 33.7964 0.691089 32.1342 1.91621 30.9082C3.14133 29.6822 4.80238 28.9925 6.53496 28.9906H115.055C116.788 28.9925 118.449 29.6822 119.674 30.9082C120.899 32.1342 121.588 33.7964 121.59 35.5303V113.61C121.588 115.344 120.899 117.006 119.674 118.232C118.449 119.458 116.788 120.148 115.055 120.15V120.15Z" fill="#E6E6E6"/>
<path d="M8.5409 114.937H113.049C113.889 114.937 114.695 114.603 115.29 114.008C115.884 113.413 116.218 112.607 116.218 111.766V37.3744C116.218 36.5334 115.884 35.7269 115.29 35.1323C114.695 34.5377 113.889 34.2036 113.049 34.2036H8.5409C7.70057 34.2036 6.89466 34.5377 6.30046 35.1323C5.70625 35.7269 5.37244 36.5334 5.37244 37.3744V111.766C5.37244 112.607 5.70625 113.413 6.30046 114.008C6.89466 114.603 7.70057 114.937 8.5409 114.937Z" fill="white"/>
<path d="M245.962 162.142H179.206C178.892 162.142 178.582 162.204 178.293 162.323C178.004 162.443 177.741 162.619 177.52 162.841C177.298 163.062 177.123 163.325 177.003 163.615C176.883 163.904 176.821 164.214 176.821 164.528C176.821 164.841 176.883 165.151 177.003 165.441C177.123 165.73 177.298 165.993 177.52 166.215C177.741 166.436 178.004 166.612 178.293 166.732C178.582 166.852 178.892 166.914 179.206 166.914H245.962C246.594 166.914 247.2 166.662 247.647 166.215C248.094 165.767 248.346 165.16 248.346 164.528C248.346 163.895 248.094 163.288 247.647 162.841C247.2 162.393 246.594 162.142 245.962 162.142V162.142Z" fill="#E6E6E6"/>
<path d="M179.206 176.824C178.892 176.824 178.582 176.886 178.293 177.006C178.004 177.126 177.741 177.301 177.52 177.523C177.298 177.744 177.123 178.007 177.003 178.297C176.883 178.586 176.821 178.897 176.821 179.21C176.821 179.523 176.883 179.833 177.003 180.123C177.123 180.412 177.298 180.675 177.52 180.897C177.741 181.119 178.004 181.294 178.293 181.414C178.582 181.534 178.892 181.596 179.206 181.596H245.962C246.594 181.596 247.2 181.344 247.647 180.897C248.094 180.45 248.346 179.843 248.346 179.21C248.346 178.577 248.094 177.97 247.647 177.523C247.2 177.075 246.594 176.824 245.962 176.824H179.206Z" fill="#E6E6E6"/>
<path d="M179.206 191.506C178.573 191.506 177.967 191.758 177.52 192.205C177.073 192.653 176.821 193.259 176.821 193.892C176.821 194.525 177.073 195.132 177.52 195.579C177.967 196.027 178.573 196.278 179.206 196.278H245.962C246.594 196.278 247.2 196.027 247.647 195.579C248.094 195.132 248.346 194.525 248.346 193.892C248.346 193.259 248.094 192.653 247.647 192.205C247.2 191.758 246.594 191.506 245.962 191.506H179.206Z" fill="#E6E6E6"/>
<path d="M166.551 167.648C168.172 167.648 169.486 166.333 169.486 164.711C169.486 163.089 168.172 161.775 166.551 161.775C164.931 161.775 163.617 163.089 163.617 164.711C163.617 166.333 164.931 167.648 166.551 167.648Z" fill="#03091E"/>
<path d="M166.551 182.33C168.172 182.33 169.486 181.015 169.486 179.393C169.486 177.772 168.172 176.457 166.551 176.457C164.931 176.457 163.617 177.772 163.617 179.393C163.617 181.015 164.931 182.33 166.551 182.33Z" fill="#E6E6E6"/>
<path d="M166.551 197.012C168.172 197.012 169.486 195.697 169.486 194.076C169.486 192.454 168.172 191.139 166.551 191.139C164.931 191.139 163.617 192.454 163.617 194.076C163.617 195.697 164.931 197.012 166.551 197.012Z" fill="#E6E6E6"/>
<path d="M219.369 164.528C219.369 164.841 219.307 165.151 219.188 165.441C219.068 165.73 218.892 165.993 218.671 166.215C218.449 166.436 218.187 166.612 217.897 166.732C217.608 166.852 217.298 166.914 216.985 166.914H179.291C178.703 166.922 178.13 166.718 177.68 166.337C177.23 165.957 176.932 165.427 176.842 164.845C176.798 164.508 176.825 164.165 176.924 163.84C177.022 163.514 177.189 163.214 177.413 162.958C177.636 162.702 177.912 162.497 178.221 162.356C178.53 162.216 178.866 162.142 179.206 162.142H216.985C217.617 162.142 218.224 162.393 218.671 162.841C219.118 163.288 219.369 163.895 219.369 164.528V164.528Z" fill="#03091E"/>
<path d="M206.165 123.784C211.432 123.784 215.701 119.512 215.701 114.241C215.701 108.97 211.432 104.698 206.165 104.698C200.898 104.698 196.628 108.97 196.628 114.241C196.628 119.512 200.898 123.784 206.165 123.784Z" fill="#E6E6E6"/>
<path d="M210.871 115.005C211.293 112.404 209.528 109.953 206.928 109.531C204.329 109.109 201.88 110.875 201.458 113.477C201.036 116.078 202.801 118.529 205.401 118.951C208 119.373 210.45 117.607 210.871 115.005Z" fill="white"/>
<path d="M16.2664 72.3031C15.6398 72.3031 15.0388 72.5522 14.5957 72.9957C14.1526 73.4391 13.9037 74.0405 13.9037 74.6676C13.9037 75.2947 14.1526 75.8961 14.5957 76.3395C15.0388 76.7829 15.6398 77.032 16.2664 77.032H105.323C105.95 77.032 106.551 76.7829 106.994 76.3395C107.437 75.8961 107.686 75.2947 107.686 74.6676C107.686 74.0405 107.437 73.4391 106.994 72.9957C106.551 72.5522 105.95 72.3031 105.323 72.3031H16.2664Z" fill="#E6E6E6"/>
<path d="M16.2664 86.8536C15.6398 86.8536 15.0388 87.1027 14.5957 87.5461C14.1526 87.9895 13.9037 88.5909 13.9037 89.218C13.9037 89.8451 14.1526 90.4465 14.5957 90.8899C15.0388 91.3334 15.6398 91.5825 16.2664 91.5825H105.323C105.95 91.5825 106.551 91.3334 106.994 90.8899C107.437 90.4465 107.686 89.8451 107.686 89.218C107.686 88.5909 107.437 87.9895 106.994 87.5461C106.551 87.1027 105.95 86.8536 105.323 86.8536H16.2664Z" fill="#E6E6E6"/>
<path d="M56.0695 102.132C55.4429 102.132 54.8419 102.381 54.3988 102.824C53.9557 103.267 53.7068 103.869 53.7068 104.496C53.7068 105.123 53.9557 105.724 54.3988 106.168C54.8419 106.611 55.4429 106.86 56.0695 106.86H65.5205C66.1471 106.86 66.7481 106.611 67.1912 106.168C67.6343 105.724 67.8832 105.123 67.8832 104.496C67.8832 103.869 67.6343 103.267 67.1912 102.824C66.7481 102.381 66.1471 102.132 65.5205 102.132H56.0695Z" fill="#03091E"/>
<path d="M48.1307 42.2799C47.938 42.2801 47.7532 42.3568 47.6169 42.4932C47.4806 42.6296 47.4039 42.8145 47.4037 43.0074V61.4756C47.4039 61.6685 47.4806 61.8534 47.6169 61.9898C47.7532 62.1262 47.938 62.2029 48.1307 62.2031H73.4592C73.6519 62.2029 73.8367 62.1262 73.973 61.9898C74.1093 61.8534 74.186 61.6685 74.1862 61.4756V43.0074C74.186 42.8145 74.1093 42.6296 73.973 42.4932C73.8367 42.3568 73.6519 42.2801 73.4592 42.2799L48.1307 42.2799Z" fill="#03091E"/>
<path d="M60.795 54.2004C63.0033 54.2004 64.7934 52.4089 64.7934 50.199C64.7934 47.9891 63.0033 46.1976 60.795 46.1976C58.5867 46.1976 56.7965 47.9891 56.7965 50.199C56.7965 52.4089 58.5867 54.2004 60.795 54.2004Z" fill="white"/>
<path d="M67.338 60.3843C67.3394 61.0167 67.1898 61.6402 66.9018 62.2031H54.6882C54.377 61.5931 54.2275 60.9133 54.254 60.2288C54.2805 59.5444 54.4822 58.8782 54.8397 58.2941C55.1972 57.71 55.6985 57.2275 56.2957 56.8929C56.893 56.5583 57.566 56.3827 58.2505 56.3829H63.3395C64.3993 56.3823 65.416 56.8031 66.1659 57.5526C66.9158 58.3022 67.3374 59.3191 67.338 60.3798V60.3843Z" fill="white"/>
<path d="M60.795 54.2004C63.0033 54.2004 64.7934 52.4089 64.7934 50.199C64.7934 47.9891 63.0033 46.1976 60.795 46.1976C58.5867 46.1976 56.7965 47.9891 56.7965 50.199C56.7965 52.4089 58.5867 54.2004 60.795 54.2004Z" fill="white"/>
<path d="M67.338 60.3843C67.3394 61.0167 67.1898 61.6402 66.9018 62.2031H54.6882C54.377 61.5931 54.2275 60.9133 54.254 60.2288C54.2805 59.5444 54.4822 58.8782 54.8397 58.2941C55.1972 57.71 55.6985 57.2275 56.2957 56.8929C56.893 56.5583 57.566 56.3827 58.2505 56.3829H63.3395C64.3993 56.3823 65.416 56.8031 66.1659 57.5526C66.9158 58.3022 67.3374 59.3191 67.338 60.3798V60.3843Z" fill="white"/>
<path d="M60.795 18.9156C66.0146 18.9156 70.2459 14.6812 70.2459 9.45778C70.2459 4.23439 66.0146 0 60.795 0C55.5753 0 51.344 4.23439 51.344 9.45778C51.344 14.6812 55.5753 18.9156 60.795 18.9156Z" fill="#E6E6E6"/>
<path d="M60.795 14.1867C63.4048 14.1867 65.5204 12.0695 65.5204 9.45777C65.5204 6.84608 63.4048 4.72888 60.795 4.72888C58.1852 4.72888 56.0695 6.84608 56.0695 9.45777C56.0695 12.0695 58.1852 14.1867 60.795 14.1867Z" fill="#03091E"/>
<path d="M296.299 281.896L291.771 281.896L289.618 264.418L296.3 264.419L296.299 281.896Z" fill="#FFB8B8"/>
<path d="M288.537 280.601H297.269V286.103H283.039C283.039 285.381 283.181 284.665 283.457 283.998C283.734 283.33 284.139 282.723 284.649 282.213C285.16 281.702 285.766 281.296 286.433 281.02C287.1 280.743 287.815 280.601 288.537 280.601V280.601Z" fill="#2F2E41"/>
<path d="M320.705 281.896L316.177 281.896L314.024 264.418L320.706 264.419L320.705 281.896Z" fill="#FFB8B8"/>
<path d="M312.942 280.601H321.675V286.103H307.444C307.444 285.381 307.587 284.665 307.863 283.998C308.139 283.33 308.544 282.723 309.055 282.213C309.565 281.702 310.171 281.296 310.838 281.02C311.505 280.743 312.22 280.601 312.942 280.601V280.601Z" fill="#2F2E41"/>
<path d="M307.444 157.652C312.817 157.652 317.172 153.294 317.172 147.917C317.172 142.541 312.817 138.183 307.444 138.183C302.072 138.183 297.717 142.541 297.717 147.917C297.717 153.294 302.072 157.652 307.444 157.652Z" fill="#FFB8B8"/>
<path d="M274.182 211.403C274.25 210.864 274.435 210.346 274.725 209.887C275.014 209.427 275.401 209.037 275.858 208.743C276.314 208.449 276.83 208.258 277.368 208.185C277.906 208.112 278.453 208.158 278.971 208.32L284.408 201.798L289.174 204.138L281.367 213.24C281.038 214.093 280.408 214.796 279.596 215.215C278.783 215.635 277.845 215.741 276.96 215.515C276.074 215.289 275.302 214.745 274.79 213.987C274.278 213.229 274.062 212.31 274.182 211.403V211.403Z" fill="#FFB8B8"/>
<path d="M320.97 217.999C320.738 217.508 320.617 216.971 320.615 216.428C320.613 215.885 320.73 215.347 320.957 214.854C321.185 214.361 321.518 213.924 321.933 213.573C322.348 213.223 322.835 212.968 323.359 212.826L324.45 204.403L329.726 203.819L328.018 215.691C328.198 216.588 328.043 217.52 327.582 218.31C327.122 219.1 326.387 219.693 325.518 219.978C324.65 220.262 323.707 220.218 322.869 219.853C322.03 219.489 321.355 218.829 320.97 217.999L320.97 217.999Z" fill="#FFB8B8"/>
<path d="M315.574 166.304C316.091 165.639 316.774 165.123 317.555 164.807C318.335 164.491 319.185 164.387 320.019 164.505C320.852 164.622 321.64 164.958 322.303 165.478C322.965 165.998 323.479 166.683 323.792 167.466L331.765 187.378C332.58 189.413 332.84 191.628 332.518 193.796L329.921 211.298C329.887 211.524 329.806 211.74 329.681 211.931C329.556 212.122 329.392 212.284 329.199 212.406C329.006 212.528 328.789 212.607 328.563 212.637C328.337 212.667 328.107 212.648 327.889 212.581L324.467 211.529C324.113 211.42 323.808 211.191 323.605 210.88C323.403 210.569 323.316 210.198 323.359 209.829C324.566 199.525 322.97 189.086 318.739 179.615L314.98 171.202C314.626 170.408 314.494 169.533 314.598 168.671C314.703 167.808 315.04 166.99 315.574 166.304V166.304Z" fill="#03091E"/>
<path d="M309.813 157.652C311.277 157.683 312.731 157.405 314.08 156.834C315.428 156.263 316.641 155.413 317.638 154.34C318.635 153.266 319.394 151.994 319.865 150.606C320.335 149.219 320.507 147.747 320.369 146.288C320.231 144.829 319.786 143.416 319.063 142.142C318.341 140.867 317.356 139.76 316.176 138.893C314.995 138.027 313.644 137.42 312.212 137.112C310.781 136.805 309.3 136.805 307.868 137.111C305.729 135.811 303.242 134.937 300.749 135.159C298.256 135.381 295.791 136.862 294.859 139.187C293.927 141.511 294.928 144.575 297.246 145.519C298.732 146.125 300.41 145.831 301.996 145.587C303.581 145.343 305.311 145.183 306.691 146.002C308.072 146.821 308.692 149.017 307.456 150.04C306.801 150.604 306.333 151.355 306.115 152.192C305.896 153.029 305.938 153.913 306.234 154.725C306.856 156.333 308.551 157.624 309.813 157.652Z" fill="#2F2E41"/>
<path d="M321.882 211.018L323.607 276.55C323.613 276.768 323.574 276.985 323.491 277.188C323.409 277.39 323.286 277.574 323.13 277.726C322.974 277.879 322.787 277.997 322.583 278.075C322.379 278.152 322.161 278.186 321.943 278.175L316.259 277.885C315.896 277.866 315.55 277.723 315.28 277.48C315.01 277.237 314.832 276.909 314.775 276.55L308.014 233.987C307.985 233.805 307.893 233.639 307.755 233.517C307.617 233.395 307.44 233.325 307.256 233.319C307.072 233.313 306.891 233.372 306.746 233.485C306.6 233.598 306.498 233.759 306.458 233.939L297.306 274.919C297.257 275.138 297.163 275.344 297.028 275.524C296.894 275.704 296.722 275.853 296.526 275.961C296.33 276.07 296.113 276.135 295.889 276.154C295.666 276.172 295.441 276.142 295.229 276.067L289.588 275.722C289.262 275.606 288.982 275.386 288.793 275.096C288.603 274.806 288.514 274.462 288.539 274.116L293.463 210.398L321.882 211.018Z" fill="#2F2E41"/>
<path d="M324.651 179.893C325.603 169.962 318.306 160.98 308.362 160.274C304.078 159.969 297.426 159.86 295.234 165.48C288.629 182.41 300.192 181.998 296.208 196.666C292.224 211.333 288.705 212.174 294.171 213.233C299.638 214.292 324.219 220.544 323.21 210.221C322.589 203.875 323.702 189.799 324.651 179.893Z" fill="#03091E"/>
<path d="M296.403 163.758C297.189 163.454 298.04 163.363 298.872 163.493C299.703 163.623 300.486 163.971 301.141 164.501C301.795 165.031 302.299 165.724 302.6 166.51C302.901 167.297 302.99 168.149 302.857 168.981L299.752 188.399C299.221 191.719 297.818 194.839 295.686 197.438L285.603 209.734C285.458 209.911 285.277 210.054 285.072 210.154C284.867 210.254 284.643 210.308 284.415 210.313C284.187 210.319 283.96 210.275 283.751 210.184C283.541 210.094 283.354 209.959 283.201 209.789L280.806 207.128C280.558 206.852 280.414 206.498 280.4 206.127C280.386 205.757 280.502 205.393 280.728 205.099L281.434 204.183C287.3 196.565 291.001 187.502 292.145 177.953L293.379 167.654C293.483 166.791 293.819 165.973 294.352 165.287C294.884 164.6 295.594 164.072 296.403 163.758V163.758Z" fill="#03091E"/>
<path d="M349.604 287.043H247.421C247.316 287.043 247.215 287.001 247.141 286.927C247.067 286.852 247.025 286.751 247.025 286.646C247.025 286.541 247.067 286.44 247.141 286.366C247.215 286.292 247.316 286.25 247.421 286.25H349.604C349.709 286.25 349.81 286.292 349.884 286.366C349.958 286.44 350 286.541 350 286.646C350 286.751 349.958 286.852 349.884 286.927C349.81 287.001 349.709 287.043 349.604 287.043Z" fill="#CCCCCC"/>
</g>
<defs>
<clipPath id="clip0">
<rect width="350" height="287.043" fill="white"/>
</clipPath>
</defs>
</svg>
